<?xml version="1.0" encoding="UTF-8" standalone="no"?>
<!DOCTYPE svg PUBLIC "-//W3C//DTD SVG 1.1//EN" "http://www.w3.org/Graphics/SVG/1.1/DTD/svg11.dtd">
<svg width="100%" height="100%" viewBox="0 0 768 768" version="1.1" xmlns="http://www.w3.org/2000/svg" xmlns:xlink="http://www.w3.org/1999/xlink" xml:space="preserve" xmlns:serif="http://www.serif.com/" style="fill-rule:evenodd;clip-rule:evenodd;stroke-linecap:round;stroke-linejoin:round;stroke-miterlimit:2;">
    <g id="_-" serif:id=" " transform="matrix(0,495.149,-495.149,0,384,99.1567)">
        <path d="M-0.034,0.476L-0.036,0.479L0.19,0.275L0.208,0.26L0.598,0.361L0.624,0.368L0.624,0.368L0.627,0.369L0.979,0.148L0.993,0.155L0.993,0.154L1.167,0.222L1.089,-0.209L1.201,-0.176L1.164,-0.396L0.895,-0.444L0.631,-0.49L0.631,-0.49L0.63,-0.49L0.641,-0.048L0.642,-0.05L0.642,-0.046L0.643,-0.047L0.642,-0.045L0.804,-0.119L0.796,-0.272L0.805,-0.272L0.83,-0.263L0.876,-0.247L0.902,-0.063L0.903,-0.062L0.903,-0.058L0.9,-0.047L0.625,0.121L0.297,0.029L0.297,-0.001C0.299,-0.025 0.306,-0.05 0.317,-0.074C0.351,-0.152 0.424,-0.211 0.534,-0.253L0.541,-0.483C0.534,-0.482 0.528,-0.48 0.522,-0.479C0.498,-0.476 0.47,-0.47 0.437,-0.46C0.357,-0.435 0.286,-0.393 0.225,-0.336C0.187,-0.293 0.16,-0.261 0.146,-0.238C0.13,-0.214 0.115,-0.188 0.102,-0.161L0.074,-0.108C0.049,-0.051 0.032,0.007 0.021,0.069L-0.049,0.484L-0.049,0.483L-0.05,0.49L-0.034,0.476Z" style="fill-rule:nonzero;stroke:black;stroke-width:0.2px;"/>
    </g>
    <g transform="matrix(0,525.714,-525.714,0,382.544,81.5686)">
        <path d="M-0.032,0.491C-0.018,0.498 -0.001,0.497 0.01,0.486L0.017,0.48C0.02,0.479 0.022,0.477 0.024,0.475L0.239,0.282L0.615,0.38C0.625,0.382 0.635,0.381 0.644,0.375L0.957,0.178C0.959,0.179 0.962,0.179 0.964,0.179L1.119,0.24C1.132,0.245 1.146,0.243 1.156,0.234C1.164,0.227 1.169,0.217 1.169,0.206C1.169,0.204 1.169,0.202 1.168,0.2L1.105,-0.148L1.154,-0.133C1.166,-0.13 1.179,-0.133 1.188,-0.141C1.196,-0.148 1.201,-0.158 1.201,-0.168C1.201,-0.17 1.201,-0.172 1.2,-0.174L1.166,-0.381C1.163,-0.397 1.151,-0.409 1.136,-0.411L0.882,-0.456L0.634,-0.5C0.632,-0.501 0.63,-0.501 0.628,-0.501C0.619,-0.501 0.61,-0.498 0.603,-0.492C0.595,-0.485 0.591,-0.475 0.591,-0.465C0.591,-0.464 0.601,-0.047 0.601,-0.047C0.601,-0.043 0.602,-0.04 0.603,-0.036C0.604,-0.031 0.607,-0.025 0.611,-0.021C0.622,-0.009 0.639,-0.006 0.653,-0.012L0.806,-0.081C0.819,-0.087 0.827,-0.1 0.827,-0.115C0.827,-0.115 0.822,-0.21 0.822,-0.21L0.826,-0.209L0.845,-0.068L0.616,0.072L0.35,-0.003C0.352,-0.021 0.357,-0.04 0.365,-0.058C0.393,-0.121 0.455,-0.171 0.549,-0.207C0.563,-0.212 0.572,-0.225 0.573,-0.24C0.573,-0.24 0.579,-0.457 0.579,-0.457C0.579,-0.468 0.574,-0.478 0.567,-0.485C0.559,-0.492 0.548,-0.495 0.537,-0.493C0.533,-0.493 0.52,-0.49 0.52,-0.49C0.495,-0.487 0.466,-0.481 0.434,-0.471C0.354,-0.445 0.282,-0.403 0.22,-0.346C0.22,-0.345 0.219,-0.344 0.218,-0.343C0.18,-0.301 0.155,-0.269 0.141,-0.247C0.125,-0.223 0.11,-0.198 0.098,-0.172L0.071,-0.122C0.071,-0.121 0.071,-0.12 0.07,-0.119C0.045,-0.063 0.028,-0.005 0.018,0.056L-0.049,0.447C-0.049,0.448 -0.05,0.453 -0.05,0.453C-0.05,0.455 -0.05,0.457 -0.05,0.459C-0.05,0.472 -0.043,0.484 -0.032,0.491Z" style="fill:url(#_Linear1);fill-rule:nonzero;"/>
    </g>
    <g transform="matrix(0,495.149,-495.149,0,384,99.1567)">
        <path d="M-0.034,0.476L-0.036,0.479L0.19,0.275L0.208,0.26L0.598,0.361L0.624,0.368L0.624,0.368L0.627,0.369L0.979,0.148L0.993,0.155L0.993,0.154L1.167,0.222L1.089,-0.209L1.201,-0.176L1.164,-0.396L0.895,-0.444L0.631,-0.49L0.631,-0.49L0.63,-0.49L0.641,-0.048L0.642,-0.05L0.642,-0.046L0.643,-0.047L0.642,-0.045L0.804,-0.119L0.796,-0.272L0.805,-0.272L0.83,-0.263L0.876,-0.247L0.902,-0.063L0.903,-0.062L0.903,-0.058L0.9,-0.047L0.625,0.121L0.297,0.029L0.297,-0.001C0.299,-0.025 0.306,-0.05 0.317,-0.074C0.351,-0.152 0.424,-0.211 0.534,-0.253L0.541,-0.483C0.534,-0.482 0.528,-0.48 0.522,-0.479C0.498,-0.476 0.47,-0.47 0.437,-0.46C0.357,-0.435 0.286,-0.393 0.225,-0.336C0.187,-0.293 0.16,-0.261 0.146,-0.238C0.13,-0.214 0.115,-0.188 0.102,-0.161L0.074,-0.108C0.049,-0.051 0.032,0.007 0.021,0.069L-0.049,0.484L-0.049,0.483L-0.05,0.49L-0.034,0.476Z" style="fill:url(#_Linear2);fill-rule:nonzero;"/>
    </g>
    <defs>
        <linearGradient id="_Linear1" x1="0" y1="0" x2="1" y2="0" gradientUnits="userSpaceOnUse" gradientTransform="matrix(1,0,0,-1,0,-0.0027652)"><stop offset="0" style="stop-color:rgb(175,20,24);stop-opacity:1"/><stop offset="0.75" style="stop-color:black;stop-opacity:1"/><stop offset="1" style="stop-color:rgb(90,11,12);stop-opacity:1"/></linearGradient>
        <linearGradient id="_Linear2" x1="0" y1="0" x2="1" y2="0" gradientUnits="userSpaceOnUse" gradientTransform="matrix(1,0,0,-1,0,-2.22045e-16)"><stop offset="0" style="stop-color:white;stop-opacity:1"/><stop offset="0.5" style="stop-color:rgb(246,233,23);stop-opacity:1"/><stop offset="1" style="stop-color:rgb(246,146,30);stop-opacity:1"/></linearGradient>
    </defs>
</svg>
