<?xml version="1.0" encoding="UTF-8" standalone="no"?>
<!DOCTYPE svg PUBLIC "-//W3C//DTD SVG 1.1//EN" "http://www.w3.org/Graphics/SVG/1.1/DTD/svg11.dtd">
<svg width="100%" height="100%" viewBox="0 0 768 768" version="1.1" xmlns="http://www.w3.org/2000/svg" xmlns:xlink="http://www.w3.org/1999/xlink" xml:space="preserve" xmlns:serif="http://www.serif.com/" style="fill-rule:evenodd;clip-rule:evenodd;stroke-linejoin:round;stroke-miterlimit:2;">
    <g transform="matrix(3.14155,0,0,3.14155,-0.424849,-24.3317)">
        <path d="M86.772,54.053L87.697,49.519L90.241,45.753L91.018,45.228C88.58,41.519 86.29,37.698 84.149,33.767C81.475,28.856 82.708,22.735 87.074,19.242L90.211,17.392L93.257,16.542C95.101,16.255 96.988,16.42 98.755,17.023C129.167,27.398 155.821,48.115 176.637,72.197C176.653,72.215 176.668,72.233 176.683,72.251L178.989,76.305L179.617,80.29L178.889,84.262C178.889,84.262 176.518,88.193 176.504,88.233C169.965,95.557 164.408,103.556 159.833,112.231C159.83,112.238 159.826,112.245 159.822,112.252L159.529,112.777L155.973,116.728L151.392,118.923L146.306,119.25L141.238,117.514C141.238,117.514 140.72,117.192 140.711,117.187C128.442,109.172 110.475,101.065 95.497,102.428C94.805,102.491 94.142,102.58 93.518,102.711C113.126,110.372 131.46,120.47 148.52,133.004C148.527,133.009 148.534,133.014 148.541,133.019L151.751,136.096L153.833,140.246L154.232,144.369L153.462,147.708L151.756,150.689L148.64,153.458L144.255,155.086C144.255,155.086 139.843,155.135 139.819,155.138C134.291,154.496 127.849,155.023 122.779,154.643L122.774,154.643C117.211,154.224 111.671,153.699 106.157,153.068C130.063,184.19 167.473,206.36 202.895,220.608L201.949,220.274L205.389,221.967L208.043,224.573L209.763,227.871L210.381,231.655L209.43,236.316L206.896,240.066L203.146,242.6L198.485,243.551L195.021,243.036L195.976,243.282C191.341,242.294 186.761,240.799 182.139,240.125C139.204,233.877 97.115,220.045 60.542,196.374C57.293,194.271 50.783,189.273 41.058,181.32L42.381,182.255L38.806,179.02L36.708,174.41C36.679,174.275 36.652,174.14 36.627,174.004L36.441,171.327L36.834,168.738L37.873,166.134L39.783,163.547L42.329,161.572L44.92,160.468L45.031,160.449C39.669,150.077 36.24,138.836 34.742,126.726C34.722,126.565 34.706,126.404 34.692,126.243C32.377,97.699 42.096,66.968 71.639,56.901L71.64,56.901C76.539,55.232 81.629,54.316 86.772,54.053Z" style="fill-rule:nonzero;"/>
    </g>
    <g transform="matrix(3.14155,0,0,3.14155,-0.424849,-24.3317)">
        <path d="M95.03,27.94C123.52,37.66 148.41,57.18 167.91,79.74C168.143,80.013 168.14,80.283 167.9,80.55C160.733,88.577 154.643,97.343 149.63,106.85C149.617,106.874 149.604,106.898 149.59,106.922C149.08,107.787 147.953,108.082 147.093,107.575C147.068,107.561 147.044,107.546 147.02,107.53C132.8,98.24 111.81,89.36 94.45,90.94C84.15,91.88 77.56,97.86 76.96,108.4C76.944,108.761 77.165,109.089 77.5,109.2C100.667,116.847 122.063,127.88 141.69,142.3C143.243,143.447 143.063,143.907 141.15,143.68C135.47,143.02 128.85,143.53 123.64,143.14C111.413,142.22 99.31,140.773 87.33,138.8C85.917,138.54 84.857,138.6 84.15,138.98C83.81,139.16 83.73,139.42 83.91,139.76C106.83,183.22 154.04,213.39 198.59,231.31C198.741,231.356 198.846,231.497 198.846,231.655C198.846,231.853 198.683,232.016 198.485,232.016C198.449,232.016 198.414,232.01 198.38,232C193.5,230.96 188.67,229.42 183.8,228.71C142.5,222.7 101.99,209.46 66.81,186.69C63.73,184.697 57.58,179.93 48.36,172.39C48.14,172.257 48.013,172.113 47.98,171.96C47.92,171.627 48.057,171.487 48.39,171.54L67.53,174.69C67.561,174.695 67.591,174.697 67.622,174.697C67.962,174.697 68.242,174.417 68.242,174.077C68.242,173.927 68.188,173.783 68.09,173.67C55.763,159.81 48.463,143.69 46.19,125.31C44.29,101.89 51.12,76.08 75.36,67.82C88.57,63.32 103.44,65.72 116.06,71.6C116.32,71.72 116.543,71.673 116.73,71.46C117.05,71.107 117.033,70.807 116.68,70.56C110.02,65.993 103.92,60.63 98.38,54.47C98.314,54.395 98.277,54.299 98.277,54.199C98.277,53.974 98.462,53.789 98.687,53.789C98.698,53.789 98.709,53.789 98.72,53.79C104.24,54.37 109.553,55.703 114.66,57.79C114.692,57.801 114.725,57.807 114.759,57.807C114.918,57.807 115.049,57.676 115.049,57.517C115.049,57.449 115.024,57.382 114.98,57.33C106.927,48.497 100.027,38.803 94.28,28.25C94.48,28.09 94.73,27.987 95.03,27.94Z" style="fill:rgb(244,56,75);fill-rule:nonzero;"/>
        <path d="M103.134,63.815C100.668,61.541 98.295,59.135 96.013,56.599C96.007,56.591 96,56.584 95.993,56.576L95.327,55.47L95.094,54.199L95.381,52.792L96.147,51.659L97.281,50.893L98.687,50.606L98.973,50.617C99,50.619 99.026,50.622 99.053,50.624C101.424,50.873 103.759,51.254 106.057,51.767C100.584,44.894 95.727,37.563 91.484,29.772C90.747,28.417 91.087,26.728 92.292,25.764L93.402,25.111L94.541,24.795C95.05,24.716 95.57,24.761 96.058,24.927C125.078,34.828 150.455,54.678 170.318,77.658C170.322,77.663 170.327,77.668 170.331,77.673L171.073,78.97L171.265,80.187L171.043,81.4C171.043,81.4 170.278,82.659 170.274,82.67C163.281,90.503 157.338,99.058 152.446,108.335L152.442,108.341L152.332,108.538L151.732,109.354L151.001,110.018L150.173,110.515L149.278,110.843L148.336,110.996L147.369,110.966L146.403,110.742L145.477,110.318C145.477,110.318 145.282,110.196 145.279,110.195C131.598,101.257 111.442,92.59 94.739,94.11C90.405,94.506 86.821,95.885 84.288,98.351C82.146,100.436 80.802,103.279 80.311,106.784C103.102,114.509 124.19,125.492 143.575,139.735L143.58,139.739C144.086,140.112 144.465,140.446 144.734,140.725L145.519,141.804L145.913,143.251L145.684,144.665L144.889,145.862L144.336,146.3L143.608,146.658L142.292,146.911C141.907,146.931 141.403,146.915 140.782,146.842C135.145,146.187 128.574,146.701 123.402,146.314L123.401,146.314C111.801,145.441 100.311,144.098 88.931,142.284C112.238,182.942 157.275,211.26 199.778,228.357L199.517,228.265L200.541,228.769L201.332,229.545L201.845,230.528L202.029,231.655L201.746,233.042L200.99,234.16L199.872,234.916L198.485,235.199L197.453,235.045L197.717,235.113C192.904,234.088 188.143,232.56 183.342,231.86C141.591,225.784 100.645,212.381 65.08,189.362C61.954,187.339 55.704,182.508 46.345,174.854L46.71,175.112L45.51,174.038L45.134,173.412L44.87,172.636C44.861,172.599 44.854,172.561 44.847,172.524L44.786,171.669L44.904,170.891L45.207,170.13L45.76,169.381L46.496,168.81L47.254,168.488L48.032,168.353L48.893,168.397C48.898,168.398 48.902,168.398 48.907,168.399C48.907,168.399 55.778,169.53 61.278,170.435C51.181,157.329 45.099,142.417 43.031,125.701C43.025,125.656 43.021,125.612 43.017,125.567C41.003,100.735 48.631,73.565 74.333,64.807C83.564,61.663 93.564,61.662 103.134,63.815ZM95.03,27.94C94.73,27.987 94.48,28.09 94.28,28.25C100.027,38.803 106.927,48.497 114.98,57.33C115.024,57.382 115.049,57.449 115.049,57.517C115.049,57.676 114.918,57.807 114.759,57.807C114.725,57.807 114.692,57.801 114.66,57.79C109.553,55.703 104.24,54.37 98.72,53.79C98.709,53.789 98.698,53.789 98.687,53.789C98.462,53.789 98.277,53.974 98.277,54.199C98.277,54.299 98.314,54.395 98.38,54.47C103.92,60.63 110.02,65.993 116.68,70.56C117.033,70.807 117.05,71.107 116.73,71.46C116.543,71.673 116.32,71.72 116.06,71.6C103.44,65.72 88.57,63.32 75.36,67.82C51.12,76.08 44.29,101.89 46.19,125.31C48.463,143.69 55.763,159.81 68.09,173.67C68.188,173.783 68.242,173.927 68.242,174.077C68.242,174.417 67.962,174.697 67.622,174.697C67.591,174.697 67.561,174.695 67.53,174.69L48.39,171.54C48.057,171.487 47.92,171.627 47.98,171.96C48.013,172.113 48.14,172.257 48.36,172.39C57.58,179.93 63.73,184.697 66.81,186.69C101.99,209.46 142.5,222.7 183.8,228.71C188.67,229.42 193.5,230.96 198.38,232C198.414,232.01 198.449,232.016 198.485,232.016C198.683,232.016 198.846,231.853 198.846,231.655C198.846,231.497 198.741,231.356 198.59,231.31C154.04,213.39 106.83,183.22 83.91,139.76C83.73,139.42 83.81,139.16 84.15,138.98C84.857,138.6 85.917,138.54 87.33,138.8C99.31,140.773 111.413,142.22 123.64,143.14C128.85,143.53 135.47,143.02 141.15,143.68C143.063,143.907 143.243,143.447 141.69,142.3C122.063,127.88 100.667,116.847 77.5,109.2C77.165,109.089 76.944,108.761 76.96,108.4C77.56,97.86 84.15,91.88 94.45,90.94C111.81,89.36 132.8,98.24 147.02,107.53C147.044,107.546 147.068,107.561 147.093,107.575C147.953,108.082 149.08,107.787 149.59,106.922C149.604,106.898 149.617,106.874 149.63,106.85C154.643,97.343 160.733,88.577 167.9,80.55C168.14,80.283 168.143,80.013 167.91,79.74C148.41,57.18 123.52,37.66 95.03,27.94Z" style="fill:url(#_Linear1);"/>
    </g>
    <g transform="matrix(3.14155,0,0,3.14155,-0.424849,-24.3317)">
        <path d="M95.03,27.94C123.52,37.66 148.41,57.18 167.91,79.74C168.143,80.013 168.14,80.283 167.9,80.55C160.733,88.577 154.643,97.343 149.63,106.85C149.617,106.874 149.604,106.898 149.59,106.922C149.08,107.787 147.953,108.082 147.093,107.575C147.068,107.561 147.044,107.546 147.02,107.53C132.8,98.24 111.81,89.36 94.45,90.94C84.15,91.88 77.56,97.86 76.96,108.4C76.944,108.761 77.165,109.089 77.5,109.2C100.667,116.847 122.063,127.88 141.69,142.3C143.243,143.447 143.063,143.907 141.15,143.68C135.47,143.02 128.85,143.53 123.64,143.14C111.413,142.22 99.31,140.773 87.33,138.8C85.917,138.54 84.857,138.6 84.15,138.98C83.81,139.16 83.73,139.42 83.91,139.76C106.83,183.22 154.04,213.39 198.59,231.31C198.741,231.356 198.846,231.497 198.846,231.655C198.846,231.853 198.683,232.016 198.485,232.016C198.449,232.016 198.414,232.01 198.38,232C193.5,230.96 188.67,229.42 183.8,228.71C142.5,222.7 101.99,209.46 66.81,186.69C63.73,184.697 57.58,179.93 48.36,172.39C48.14,172.257 48.013,172.113 47.98,171.96C47.92,171.627 48.057,171.487 48.39,171.54L67.53,174.69C67.561,174.695 67.591,174.697 67.622,174.697C67.962,174.697 68.242,174.417 68.242,174.077C68.242,173.927 68.188,173.783 68.09,173.67C55.763,159.81 48.463,143.69 46.19,125.31C44.29,101.89 51.12,76.08 75.36,67.82C88.57,63.32 103.44,65.72 116.06,71.6C116.32,71.72 116.543,71.673 116.73,71.46C117.05,71.107 117.033,70.807 116.68,70.56C110.02,65.993 103.92,60.63 98.38,54.47C98.314,54.395 98.277,54.299 98.277,54.199C98.277,53.974 98.462,53.789 98.687,53.789C98.698,53.789 98.709,53.789 98.72,53.79C104.24,54.37 109.553,55.703 114.66,57.79C114.692,57.801 114.725,57.807 114.759,57.807C114.918,57.807 115.049,57.676 115.049,57.517C115.049,57.449 115.024,57.382 114.98,57.33C106.927,48.497 100.027,38.803 94.28,28.25C94.48,28.09 94.73,27.987 95.03,27.94Z" style="fill:white;fill-rule:nonzero;"/>
        <path d="M109.615,67.295C105.206,63.758 101.067,59.838 97.197,55.534C97.193,55.531 97.19,55.527 97.187,55.523L96.815,54.907L96.686,54.199L96.727,53.794L96.846,53.416L97.273,52.784L97.905,52.357L98.283,52.239L98.687,52.197L98.847,52.203C98.86,52.205 98.873,52.206 98.886,52.207C102.84,52.623 106.69,53.414 110.437,54.582C103.725,46.7 97.873,38.177 92.882,29.011C92.513,28.334 92.683,27.489 93.286,27.007L94.01,26.582C94.245,26.484 94.503,26.411 94.785,26.367C95.04,26.328 95.3,26.351 95.544,26.434C124.299,36.244 149.433,55.929 169.114,78.699C169.116,78.702 169.118,78.704 169.12,78.707L169.366,79.048L169.565,79.477L169.674,80.167L169.547,80.854L169.338,81.279C169.338,81.279 169.09,81.605 169.087,81.61C162.007,89.54 155.991,98.201 151.038,107.592L151.036,107.595C151.012,107.641 150.987,107.686 150.961,107.73C150.007,109.349 147.895,109.895 146.285,108.947C146.239,108.919 146.193,108.891 146.15,108.862C132.199,99.748 111.626,90.975 94.594,92.525C89.853,92.958 85.949,94.513 83.178,97.21C80.541,99.777 78.957,103.366 78.59,107.885C101.69,115.576 123.037,126.621 142.632,141.017L142.635,141.02C143.466,141.633 143.92,142.172 144.102,142.528L144.265,142.956L144.323,143.333L144.305,143.7L144.202,144.085L144.016,144.438L143.779,144.721L143.478,144.959L143.065,145.162C142.689,145.298 141.99,145.382 140.966,145.261C135.307,144.603 128.712,145.116 123.521,144.727L123.521,144.727C111.247,143.804 99.097,142.351 87.071,140.37C87.062,140.369 87.052,140.367 87.042,140.365C86.639,140.291 86.278,140.237 85.959,140.219C108.94,182.709 155.378,212.213 199.184,229.833L199.053,229.787L199.618,230.065L200.053,230.493L200.336,231.034L200.437,231.655L200.281,232.419L199.865,233.035L199.249,233.451L198.485,233.607L197.917,233.523L198.048,233.557C193.202,232.524 188.407,230.99 183.571,230.285C142.045,224.242 101.317,210.92 65.945,188.026C62.842,186.018 56.642,181.219 47.352,173.622L47.535,173.751L47.081,173.414L46.787,173.089L46.573,172.732L46.425,172.298C46.421,172.279 46.417,172.261 46.414,172.242L46.376,171.734L46.441,171.302L46.605,170.891L46.899,170.493L47.29,170.19L47.698,170.016L48.131,169.941L48.641,169.968C48.644,169.969 48.646,169.969 48.648,169.97C48.648,169.97 59.887,171.819 65.131,172.682C53.653,159.042 46.813,143.316 44.61,125.505C44.608,125.483 44.605,125.461 44.604,125.439C42.646,101.312 49.876,74.823 74.847,66.313C86.026,62.505 98.364,63.468 109.615,67.295ZM95.03,27.94C94.73,27.987 94.48,28.09 94.28,28.25C100.027,38.803 106.927,48.497 114.98,57.33C115.024,57.382 115.049,57.449 115.049,57.517C115.049,57.676 114.918,57.807 114.759,57.807C114.725,57.807 114.692,57.801 114.66,57.79C109.553,55.703 104.24,54.37 98.72,53.79C98.709,53.789 98.698,53.789 98.687,53.789C98.462,53.789 98.277,53.974 98.277,54.199C98.277,54.299 98.314,54.395 98.38,54.47C103.92,60.63 110.02,65.993 116.68,70.56C117.033,70.807 117.05,71.107 116.73,71.46C116.543,71.673 116.32,71.72 116.06,71.6C103.44,65.72 88.57,63.32 75.36,67.82C51.12,76.08 44.29,101.89 46.19,125.31C48.463,143.69 55.763,159.81 68.09,173.67C68.188,173.783 68.242,173.927 68.242,174.077C68.242,174.417 67.962,174.697 67.622,174.697C67.591,174.697 67.561,174.695 67.53,174.69L48.39,171.54C48.057,171.487 47.92,171.627 47.98,171.96C48.013,172.113 48.14,172.257 48.36,172.39C57.58,179.93 63.73,184.697 66.81,186.69C101.99,209.46 142.5,222.7 183.8,228.71C188.67,229.42 193.5,230.96 198.38,232C198.414,232.01 198.449,232.016 198.485,232.016C198.683,232.016 198.846,231.853 198.846,231.655C198.846,231.497 198.741,231.356 198.59,231.31C154.04,213.39 106.83,183.22 83.91,139.76C83.73,139.42 83.81,139.16 84.15,138.98C84.857,138.6 85.917,138.54 87.33,138.8C99.31,140.773 111.413,142.22 123.64,143.14C128.85,143.53 135.47,143.02 141.15,143.68C143.063,143.907 143.243,143.447 141.69,142.3C122.063,127.88 100.667,116.847 77.5,109.2C77.165,109.089 76.944,108.761 76.96,108.4C77.56,97.86 84.15,91.88 94.45,90.94C111.81,89.36 132.8,98.24 147.02,107.53C147.044,107.546 147.068,107.561 147.093,107.575C147.953,108.082 149.08,107.787 149.59,106.922C149.604,106.898 149.617,106.874 149.63,106.85C154.643,97.343 160.733,88.577 167.9,80.55C168.14,80.283 168.143,80.013 167.91,79.74C148.41,57.18 123.52,37.66 95.03,27.94Z" style="fill:rgb(244,56,75);"/>
    </g>
    <defs>
        <linearGradient id="_Linear1" x1="0" y1="0" x2="1" y2="0" gradientUnits="userSpaceOnUse" gradientTransform="matrix(152.955,0,0,204.076,45.8902,129.978)"><stop offset="0" style="stop-color:rgb(244,56,75);stop-opacity:1"/><stop offset="1" style="stop-color:rgb(255,208,33);stop-opacity:1"/></linearGradient>
    </defs>
</svg>
